<svg class="variation-svg fade-enter-done" viewBox="53.54998779296875 77.22000122070312 467.9000244140625 407.80999755859375" xmlns="http://www.w3.org/2000/svg" xmlns:xlink="http://www.w3.org/1999/xlink" style="transform: scale(1);"><image height="211.99356079101562" width="193.81679470538202" y="147.22000122070312" x="192.592" preserveAspectRatio="xMinYMin" href="https://fiverr-res.cloudinary.com/image/upload/f_png,q_auto,t_makers_project_variation_preview/v1/secured-attachments/makers_project_variation/preview_file/5bec3f7013aa97e21aac38020a8a07c8-1715567212/662f456075f0f05c347db0fd.svg?__cld_token__=exp=1727185798~hmac=cffa6b6ae39e504d14dae43aae7807a5d74dfb20ff8f41fe9ed221db8118a731" xlink:href="https://fiverr-res.cloudinary.com/image/upload/f_png,q_auto,t_makers_project_variation_preview/v1/secured-attachments/makers_project_variation/preview_file/5bec3f7013aa97e21aac38020a8a07c8-1715567212/662f456075f0f05c347db0fd.svg?__cld_token__=exp=1727185798~hmac=cffa6b6ae39e504d14dae43aae7807a5d74dfb20ff8f41fe9ed221db8118a731" style="position: absolute;"></image><g><svg data-layer-type="text" y="422.0299993896484" viewBox="0 0 0 0" x="287.49999984741214" height="0" width="0" style="position: absolute;"><g data-horizontal-grow="center" style="fill: rgb(0, 0, 0); font-size: 10.8755px; font-weight: 800; font-style: normal; font-family: Montserrat; dominant-baseline: hanging; text-transform: uppercase;"><path d="" transform="translate(0, 0)"></path></g></svg></g><g><svg data-layer-type="text" y="383.61000061035156" viewBox="1.8600000143051147 8.289999961853027 327.9000244140625 31.419998168945312" x="123.54998779296875" height="31.419998168945312" width="327.9000244140625" style="position: absolute;"><g data-horizontal-grow="center" style="fill: rgb(0, 0, 0); font-size: 32px; font-weight: 900; font-style: normal; font-family: Orbitron; dominant-baseline: hanging; text-transform: capitalize;"><path d="M1.86 32.35L1.86 32.35L1.86 14.05Q1.86 12.74 2.50 11.66Q3.14 10.59 4.22 9.95Q5.31 9.31 6.59 9.31L6.59 9.31L20.13 9.31Q21.44 9.31 22.51 9.95Q23.58 10.59 24.24 11.66Q24.90 12.74 24.90 14.05L24.90 14.05L24.90 32.35L19.87 32.35L19.87 24.93L6.82 24.93L6.82 32.35L1.86 32.35ZM6.82 19.94L6.82 19.94L19.87 19.94L19.87 14.30Q19.87 14.30 19.87 14.30Q19.87 14.30 19.87 14.30L19.87 14.30L6.82 14.30Q6.82 14.30 6.82 14.30Q6.82 14.30 6.82 14.30L6.82 14.30L6.82 19.94ZM33.31 32.35L28.42 32.35L28.42 32.35L28.42 18.43Q28.42 17.18 29.06 16.13Q29.70 15.07 30.75 14.43Q31.81 13.79 33.09 13.79L33.09 13.79L43.33 13.79L43.33 18.69L33.31 18.69Q33.31 18.69 33.31 18.69Q33.31 18.69 33.31 18.69L33.31 18.69L33.31 32.35ZM50.56 32.35L50.56 32.35Q49.28 32.35 48.22 31.71Q47.17 31.07 46.54 30.02Q45.92 28.96 45.92 27.71L45.92 27.71L45.92 13.79L50.82 13.79L50.82 27.46Q50.82 27.46 50.82 27.46Q50.82 27.46 50.82 27.46L50.82 27.46L59.84 27.46Q59.84 27.46 59.84 27.46Q59.84 27.46 59.84 27.46L59.84 27.46L59.84 13.79L64.74 13.79L64.74 27.71Q64.74 28.96 64.11 30.02Q63.49 31.07 62.43 31.71Q61.38 32.35 60.10 32.35L60.10 32.35L50.56 32.35ZM73.09 32.35L68.19 32.35L68.19 32.35L68.19 13.79L82.37 13.79Q83.65 13.79 84.70 14.43Q85.76 15.07 86.38 16.13Q87.01 17.18 87.01 18.43L87.01 18.43L87.01 32.35L82.11 32.35L82.11 18.69Q82.11 18.69 82.11 18.69Q82.11 18.69 82.11 18.69L82.11 18.69L73.09 18.69Q73.09 18.69 73.09 18.69Q73.09 18.69 73.09 18.69L73.09 18.69L73.09 32.35ZM105.86 32.35L100.86 32.35L100.86 9.31L105.86 9.31L105.86 18.34L110.37 18.34L117.92 9.31L123.10 9.31L123.10 11.04L114.88 20.83L123.10 30.62L123.10 32.35L117.92 32.35L110.37 23.33L105.86 23.33L105.86 32.35ZM130.88 32.35L130.88 32.35Q129.60 32.35 128.54 31.71Q127.49 31.07 126.86 30.02Q126.24 28.96 126.24 27.71L126.24 27.71L126.24 13.79L131.14 13.79L131.14 27.46Q131.14 27.46 131.14 27.46Q131.14 27.46 131.14 27.46L131.14 27.46L140.16 27.46Q140.16 27.46 140.16 27.46Q140.16 27.46 140.16 27.46L140.16 27.46L140.16 13.79L145.06 13.79L145.06 27.71Q145.06 28.96 144.43 30.02Q143.81 31.07 142.75 31.71Q141.70 32.35 140.42 32.35L140.42 32.35L130.88 32.35ZM152.54 32.35L147.65 32.35L147.65 32.35L147.65 13.79L169.98 13.79Q171.26 13.79 172.32 14.43Q173.38 15.07 174.00 16.13Q174.62 17.18 174.62 18.43L174.62 18.43L174.62 32.35L169.76 32.35L169.76 18.69Q169.76 18.69 169.76 18.69Q169.76 18.69 169.76 18.69L169.76 18.69L163.62 18.69Q163.62 18.69 163.62 18.69Q163.62 18.69 163.62 18.69L163.62 18.69L163.62 32.35L158.69 32.35L158.69 18.69Q158.69 18.69 158.69 18.69Q158.69 18.69 158.69 18.69L158.69 18.69L152.54 18.69Q152.54 18.69 152.54 18.69Q152.54 18.69 152.54 18.69L152.54 18.69L152.54 32.35ZM196.70 32.35L182.53 32.35Q181.25 32.35 180.19 31.71Q179.14 31.07 178.51 30.02Q177.89 28.96 177.89 27.71L177.89 27.71L177.89 20.61L191.81 20.61L191.81 18.69Q191.81 18.69 191.81 18.69Q191.81 18.69 191.81 18.69L191.81 18.69L177.89 18.69L177.89 13.79L192.06 13.79Q193.34 13.79 194.40 14.43Q195.46 15.07 196.08 16.13Q196.70 17.18 196.70 18.43L196.70 18.43L196.70 32.35ZM182.78 27.46L182.78 27.46L191.81 27.46L191.81 24.90L182.78 24.90L182.78 27.46Q182.78 27.46 182.78 27.46Q182.78 27.46 182.78 27.46ZM204.13 32.35L199.23 32.35L199.23 32.35L199.23 18.43Q199.23 17.18 199.87 16.13Q200.51 15.07 201.57 14.43Q202.62 13.79 203.90 13.79L203.90 13.79L214.14 13.79L214.14 18.69L204.13 18.69Q204.13 18.69 204.13 18.69Q204.13 18.69 204.13 18.69L204.13 18.69L204.13 32.35ZM244.77 32.35L231.23 32.35Q229.95 32.35 228.86 31.71Q227.78 31.07 227.14 29.98Q226.50 28.90 226.50 27.62L226.50 27.62L226.50 14.05Q226.50 12.74 227.14 11.66Q227.78 10.59 228.86 9.95Q229.95 9.31 231.23 9.31L231.23 9.31L244.77 9.31Q246.08 9.31 247.15 9.95Q248.22 10.59 248.88 11.66Q249.54 12.74 249.54 14.05L249.54 14.05L249.54 16.22L244.51 16.22L244.51 14.30Q244.51 14.30 244.51 14.30Q244.51 14.30 244.51 14.30L244.51 14.30L231.46 14.30Q231.46 14.30 231.46 14.30Q231.46 14.30 231.46 14.30L231.46 14.30L231.46 27.36Q231.46 27.36 231.46 27.36Q231.46 27.36 231.46 27.36L231.46 27.36L244.51 27.36Q244.51 27.36 244.51 27.36Q244.51 27.36 244.51 27.36L244.51 27.36L244.51 23.90L239.52 23.90L239.52 18.91L249.54 18.91L249.54 27.62Q249.54 28.90 248.88 29.98Q248.22 31.07 247.15 31.71Q246.08 32.35 244.77 32.35L244.77 32.35ZM257.60 32.35L257.60 32.35Q256.32 32.35 255.26 31.71Q254.21 31.07 253.58 30.02Q252.96 28.96 252.96 27.71L252.96 27.71L252.96 13.79L257.86 13.79L257.86 27.46Q257.86 27.46 257.86 27.46Q257.86 27.46 257.86 27.46L257.86 27.46L266.88 27.46Q266.88 27.46 266.88 27.46Q266.88 27.46 266.88 27.46L266.88 27.46L266.88 13.79L271.78 13.79L271.78 27.71Q271.78 28.96 271.15 30.02Q270.53 31.07 269.47 31.71Q268.42 32.35 267.14 32.35L267.14 32.35L257.60 32.35ZM279.26 39.71L274.37 39.71L274.37 39.71L274.37 13.79L288.54 13.79Q289.82 13.79 290.88 14.43Q291.94 15.07 292.56 16.13Q293.18 17.18 293.18 18.43L293.18 18.43L293.18 27.71Q293.18 28.96 292.56 30.02Q291.94 31.07 290.88 31.71Q289.82 32.35 288.54 32.35L288.54 32.35L279.26 32.35L279.26 39.71ZM279.26 27.46L279.26 27.46L288.29 27.46Q288.29 27.46 288.29 27.46Q288.29 27.46 288.29 27.46L288.29 27.46L288.29 18.69Q288.29 18.69 288.29 18.69Q288.29 18.69 288.29 18.69L288.29 18.69L279.26 18.69Q279.26 18.69 279.26 18.69Q279.26 18.69 279.26 18.69L279.26 18.69L279.26 27.46Q279.26 27.46 279.26 27.46Q279.26 27.46 279.26 27.46ZM300.26 32.35L300.26 32.35Q298.98 32.35 297.92 31.71Q296.86 31.07 296.22 30.02Q295.58 28.96 295.58 27.71L295.58 27.71L295.58 8.29L300.48 8.29L300.48 13.79L307.36 13.79L307.36 18.69L300.48 18.69L300.48 27.46Q300.48 27.46 300.48 27.46Q300.48 27.46 300.48 27.46L300.48 27.46L307.36 27.46L307.36 32.35L300.26 32.35ZM329.76 32.35L315.58 32.35Q314.30 32.35 313.25 31.71Q312.19 31.07 311.57 30.02Q310.94 28.96 310.94 27.71L310.94 27.71L310.94 20.61L324.86 20.61L324.86 18.69Q324.86 18.69 324.86 18.69Q324.86 18.69 324.86 18.69L324.86 18.69L310.94 18.69L310.94 13.79L325.12 13.79Q326.40 13.79 327.46 14.43Q328.51 15.07 329.14 16.13Q329.76 17.18 329.76 18.43L329.76 18.43L329.76 32.35ZM315.84 27.46L315.84 27.46L324.86 27.46L324.86 24.90L315.84 24.90L315.84 27.46Q315.84 27.46 315.84 27.46Q315.84 27.46 315.84 27.46Z" transform="translate(0, 0)"></path></g></svg></g></svg>