<svg xmlns="http://www.w3.org/2000/svg" width="85" height="83.573" viewBox="0 0 85 85">
  <g id="kangarookids-logo" transform="translate(1040 -120.5)">
    <g id="Group_29" data-name="Group 29" transform="translate(-1040 120.5)">     
      <g id="Group_28" data-name="Group 28">
        <g id="Group_26" data-name="Group 26">
          <path id="Path_50" data-name="Path 50" d="M-992.986,143.324H-993v.006Z" transform="translate(1028.437 -126.115)" fill="#ffd430"/>
          <path id="Path_51" data-name="Path 51" d="M-951.287,130.126c-.058-.877-.337-1.208-.831-.993q-1.447.619-3.3,1.621.174,2.745,3.259,3.183c.152.017.3.029.465.047A17.191,17.191,0,0,0-951.287,130.126Z" transform="translate(1019.192 -122.608)" fill="#fff"/>
          <path id="Path_52" data-name="Path 52" d="M-954.271,186.683l-.005-.023a.906.906,0,0,0-.117.041l.006.006C-954.346,186.7-954.306,186.689-954.271,186.683Z" transform="translate(1018.94 -136.776)" fill="#f0c122"/>
          <path id="Path_53" data-name="Path 53" d="M-984.779,155.988l-.035-.011.017.005a.131.131,0,0,1-.017.058c.011-.017.017-.035.029-.052Z" transform="translate(1026.424 -129.228)" fill="#f0c122"/>
          <path id="Path_54" data-name="Path 54" d="M-1005.109,168.2v-.017h-.017Z" transform="translate(1031.421 -132.23)" fill="#f0c122"/>
          <path id="Path_55" data-name="Path 55" d="M-1017.528,205.245a4.622,4.622,0,0,0-.418.453c-.011.012-.023.035-.035.047a10.041,10.041,0,0,0-.761.947l-.052.069q-1.569,1.918-3.253,3.7a65.524,65.524,0,0,1-11.358,9.54l-2.673,1.772c-.517.29-.784.552-.8.79a.489.489,0,0,0,.052.279.814.814,0,0,0,.546.25,5.707,5.707,0,0,0,1.6-.069c.285-.041.534-.087.749-.122a9.832,9.832,0,0,0,1.58-.412,1.521,1.521,0,0,1,.7-.139.163.163,0,0,1,.133.081.572.572,0,0,1-.314.383c-.245.133-.488.256-.726.366a8.76,8.76,0,0,1-1.708.454c-.488.063-.767.168-.825.308a.218.218,0,0,0,.023.215.547.547,0,0,0,.25.186,4.416,4.416,0,0,0,1.028.308,13.168,13.168,0,0,0,1.632.1,9.571,9.571,0,0,0,5.113-1.511,15.469,15.469,0,0,0,4.939-5.525.9.9,0,0,1,.058-.1q2.187-3.7,4.439-7.053a12.085,12.085,0,0,1,1.488-1.825l.121-.127a8.756,8.756,0,0,1,.884-.755c.116-.087.238-.174.366-.262a4.78,4.78,0,0,0,.842-.894.95.95,0,0,0,.076-.82,1.129,1.129,0,0,0-.593-.691q-.454-.217-.889-.418a1.748,1.748,0,0,0-.686-.209,1.932,1.932,0,0,0-.511.075A2.473,2.473,0,0,0-1017.528,205.245Z" transform="translate(1039.233 -141.179)" fill="#ffd430"/>
          <path id="Path_56" data-name="Path 56" d="M-975.1,150.976l-.058-.023c0,.011-.006.023-.006.035Z" transform="translate(1024.051 -127.992)" fill="#f0c122"/>
          <path id="Path_57" data-name="Path 57" d="M-972.941,131.829q-3.084-.435-3.259-3.183a34.433,34.433,0,0,1-20.846,3.306c-2.313-.5-4.032-2.457-5.177-5.862s-4.317-5.27-9.522-5.589c-.72.041-1,.669-.831,1.883a11.416,11.416,0,0,0,3.725,5.252,48.545,48.545,0,0,0,5.264,3.178c2.016,1.063,2.678,2.034,2,2.9a.357.357,0,0,1-.075.139,2.187,2.187,0,0,1-.25.14q-2.135,1.071-6.943-1.378-5.1-2.579-11.469,3.126-.732,1.011,2.278,2a16.222,16.222,0,0,0,5.809.884,14.794,14.794,0,0,0,5.816-1.616q2.276-1.28,2.121,1.981c.081.837.127,2,.146,3.48v.035a49.552,49.552,0,0,1-.959,7.995,7.068,7.068,0,0,1-2.62,1.383c-.924.244-1.644.424-2.167.54a16.315,16.315,0,0,0-1.662.459,12.4,12.4,0,0,0-1.621.674,13.431,13.431,0,0,0-1.447.935c-.174.128-.314.227-.424.314-.174.146-.384.314-.616.517a1.765,1.765,0,0,0-.5.633.151.151,0,0,0-.018.047c-.075.2-.046.337.1.406.163.081.465-.052.924-.389a3.948,3.948,0,0,1,.836-.546c.081-.023.128-.023.157,0,.006,0,.006.005.012.017.017.029-.169.162-.547.4a4.017,4.017,0,0,0-.836.691,2.066,2.066,0,0,0-.146.169,1.109,1.109,0,0,0-.262.494.354.354,0,0,0,.081.29c.146.192.407.122.779-.2a7.869,7.869,0,0,1,.935-.72c.262-.157.419-.215.477-.169h.017v.017a.049.049,0,0,1-.005.029q-.035.1-.366.3a3.987,3.987,0,0,0-.7.593c-.064.058-.122.122-.18.185-.215.256-.308.459-.273.611a.3.3,0,0,0,.041.087c.005.023.023.035.035.052a.158.158,0,0,0,.041.029c.185.116.569-.047,1.145-.494a1.584,1.584,0,0,1,.163-.116c.185-.111.4-.232.621-.378a9.424,9.424,0,0,1,1.888-1.22,18.186,18.186,0,0,1,5.345-1.8c-.3.848-.621,1.7-.964,2.557-.563,1.405-1.133,2.678-1.719,3.828q-2.371,4.907-4.172,6.4a5.4,5.4,0,0,1-3.1,1.516,4.379,4.379,0,0,1-3.178-1.231q-2.074-1.691-3.323-6.682a18.786,18.786,0,0,0-4.148-8.262q-3.774-3.469-10.051-3.021-2.588.148-3.178.7c-.516.54.32.86,2.516.97q10.109.426,11.312,13.078a18.219,18.219,0,0,0,3.643,9.894,16.583,16.583,0,0,0,7.658,5.183,15.1,15.1,0,0,0,4.136.918,23.848,23.848,0,0,0,3.724-.11,19.288,19.288,0,0,0,3.236-.581,31.162,31.162,0,0,0,3.434-1.331q2.154-.958,2.981-.325a1.662,1.662,0,0,1,.552,1.1,8.178,8.178,0,0,1,.012,1.988c-.041.278-.064.54-.075.772l-.21,2c-.011.883.372,1.319,1.157,1.307a22.419,22.419,0,0,0,5.171-3.388,35.177,35.177,0,0,1,8.36-5.124,47.983,47.983,0,0,1,4.857-1.8,26.2,26.2,0,0,0,3.95-1.139c.912-.378,1.267-.767,1.064-1.162-.029-.052-.058-.111-.094-.163a5.862,5.862,0,0,0-3.12-1.359.02.02,0,0,0-.017-.006.9.9,0,0,1-.4-.157c-.076-.081.052-.168.377-.256a.092.092,0,0,1,.035-.011c.017-.006.046-.012.069-.017l-.006-.006a.9.9,0,0,1,.117-.041l.005.023a3.318,3.318,0,0,1,2,.7q1.011.671,1.237.523v-.006s.023-.035.075-.1a.52.52,0,0,0-.081-.431,2.833,2.833,0,0,0-.378-.476,6.589,6.589,0,0,0-5.718-2c-.069.012-.145.023-.22.029q-4.489.645-10.1,7.442-4.1,4.8-5.356,4.741-2.606.079-1.336-3.666c.005,0,.005-.006.005-.011a15.314,15.314,0,0,0,.1-10.557l-2.788-3.835a35.812,35.812,0,0,0-2.568-3.1c-.081-.081-.157-.163-.238-.25l-.552-.569,1.807.912a21.6,21.6,0,0,0,6.182,1.767,15.9,15.9,0,0,0,4.817.011c.732-.151,1.115-.314,1.156-.476l.017-.006a.281.281,0,0,0-.063-.192.4.4,0,0,0-.268-.111,2.922,2.922,0,0,0-.807.087,4.229,4.229,0,0,1-1.046.168c-.11-.023-.168-.052-.163-.087s.238-.094.715-.157a4.372,4.372,0,0,0,1.331-.407c.412-.209.587-.43.523-.685-.006-.023-.017-.052-.023-.069-.1-.192-.378-.216-.825-.081a9.015,9.015,0,0,1-1.237.29c-.314.041-.494.029-.529-.047a.019.019,0,0,1-.006-.029,1.273,1.273,0,0,1,.5-.152,4.534,4.534,0,0,0,1.2-.366c.43-.2.6-.412.516-.645a.174.174,0,0,0-.029-.058c-.133-.186-.575-.192-1.325-.006-.662.157-1.074.18-1.231.064a.2.2,0,0,1-.07-.1c-.017-.139.151-.332.5-.564s.412-.441.2-.61h0c-.221-.174-.593-.087-1.121.256a3.22,3.22,0,0,1-.82.407c-.029.005-.058.017-.093.023l-.017.006a2.511,2.511,0,0,1-1.087.052c-.3-.052-.6-.116-.9-.2a6.028,6.028,0,0,1-1.8-.808,7.712,7.712,0,0,1-3.718-7.581,11.759,11.759,0,0,1,.412-1.79l.174-.4-.017-.005.035.011q1.578-2.676,4.689-.064a7.553,7.553,0,0,0,5.258,1.813c1.226-.087,1.569-.314,1.011-.679a3.925,3.925,0,0,0-.4-.215A8.484,8.484,0,0,1-991,144.548a2.109,2.109,0,0,1-.186-.721.457.457,0,0,1,.041-.238.2.2,0,0,1,.058-.064.127.127,0,0,1,.058-.04l-.064.011c0-.011.006-.023.006-.035a.824.824,0,0,1,.47-.442,3.019,3.019,0,0,1,1.5-.1Q-977.127,144.44-972.941,131.829Z" transform="translate(1039.975 -120.5)" fill="#ffd430"/>
          <path id="Path_58" data-name="Path 58" d="M-970.089,174.268l.017.005c-.005-.005-.005-.005,0-.011Z" transform="translate(1022.802 -133.726)" fill="#f0c122"/>
          <g id="Group_22" data-name="Group 22" transform="translate(0 1.883)">
            <g id="Group_21" data-name="Group 21">
              <g id="Group_10" data-name="Group 10" transform="translate(27.399)">
                <g id="Group_9" data-name="Group 9">
                  <path id="Path_59" data-name="Path 59" d="M-1003.662,123c.029.221.075.459.133.715a23.78,23.78,0,0,0,2.08,5.432q1.168,2.031,5.246,3.318c2.452.779,3.631,1.4,3.526,1.865.68-.866.018-1.836-2-2.9a48.55,48.55,0,0,1-5.264-3.178A11.415,11.415,0,0,1-1003.662,123Z" transform="translate(1003.662 -122.997)" fill="#e5b02b"/>
                </g>
              </g>
              <g id="Group_12" data-name="Group 12" transform="translate(18.915 13.357)">
                <g id="Group_11" data-name="Group 11">
                  <path id="Path_60" data-name="Path 60" d="M-1011.9,142.716q-3.007-.993-2.278-2-1.891,1.795,1.086,2.806a18.812,18.812,0,0,0,7.3,1.72,7.422,7.422,0,0,0,4.956-1.831c1.6-1.278,2.423-1.522,2.446-.726h.011a6.069,6.069,0,0,1,.221,1.284q.157-3.26-2.121-1.981a14.794,14.794,0,0,1-5.816,1.616A16.222,16.222,0,0,1-1011.9,142.716Z" transform="translate(1014.914 -140.712)" fill="#e5b02b"/>
                </g>
              </g>
              <g id="Group_14" data-name="Group 14" transform="translate(0 27.766)">
                <g id="Group_13" data-name="Group 13">
                  <path id="Path_61" data-name="Path 61" d="M-1039.775,159.822c-.273.244-.3.464-.081.656a7.159,7.159,0,0,0,2.754.912q9.342,1.674,9.546,14.536.209,12.916,10.226,15.461c1.093.262,1.76.418,2,.464a4.715,4.715,0,0,1,.755.238,1.223,1.223,0,0,1,.6.506.884.884,0,0,1,.075.749.848.848,0,0,1-.877.651,1.868,1.868,0,0,1-.3-.023,3.687,3.687,0,0,1-.743-.232c-.1-.035-.192-.07-.291-.1a2.1,2.1,0,0,0-.651-.087,1.747,1.747,0,0,1,.686.209q.435.2.889.418a1.13,1.13,0,0,1,.593.691.95.95,0,0,1-.076.82,4.78,4.78,0,0,1-.842.894,6.13,6.13,0,0,1,3.219-1.057,22.437,22.437,0,0,0,13.607-5.334c.814-.569,1.215-.453,1.2.349v2.515c-.023,1.11.377,1.685,1.2,1.737a1.712,1.712,0,0,0,.593-.11c-.785.011-1.168-.425-1.157-1.307l.21-2c.011-.232.035-.494.075-.772a8.178,8.178,0,0,0-.012-1.988,1.662,1.662,0,0,0-.552-1.1q-.828-.637-2.981.325a31.165,31.165,0,0,1-3.434,1.331,19.29,19.29,0,0,1-3.236.581,23.847,23.847,0,0,1-3.724.11,15.1,15.1,0,0,1-4.136-.918,16.583,16.583,0,0,1-7.658-5.183,18.22,18.22,0,0,1-3.643-9.894q-1.2-12.646-11.312-13.078C-1039.455,160.682-1040.291,160.362-1039.775,159.822Z" transform="translate(1040 -159.822)" fill="#e5b02b"/>
                </g>
              </g>
              <g id="Group_16" data-name="Group 16" transform="translate(48.89 9.447)">
                <g id="Group_15" data-name="Group 15">
                  <path id="Path_62" data-name="Path 62" d="M-956.55,135.573c-.163-.017-.314-.029-.465-.047q-4.191,12.611-16.169,11.085a3.019,3.019,0,0,0-1.5.1.824.824,0,0,0-.47.442l.058.023c.25-.192.842-.117,1.772.238a14.467,14.467,0,0,0,2.673.755,10.156,10.156,0,0,0,2.91.052,9.053,9.053,0,0,0,3.126-.86,12.119,12.119,0,0,0,4.566-3.794l.233-.29a.355.355,0,0,0,.041-.052,16.06,16.06,0,0,0,2.527-5.037C-957.015,137.275-956.782,136.4-956.55,135.573Z" transform="translate(975.159 -135.526)" fill="#e5b02b"/>
                </g>
              </g>
              <g id="Group_18" data-name="Group 18" transform="translate(26.816 31.96)">
                <g id="Group_17" data-name="Group 17">
                  <path id="Path_63" data-name="Path 63" d="M-998.153,167.942c.343-.854.663-1.709.964-2.557a18.186,18.186,0,0,0-5.345,1.8,9.423,9.423,0,0,0-1.888,1.22c.163-.058.279-.058.337.023.069.116,0,.337-.209.674s-.186.529.063.593.541-.152.86-.651a3.431,3.431,0,0,1,.54-.663.711.711,0,0,0,.07-.052l.011-.012a2.489,2.489,0,0,1,.906-.464c.285-.07.564-.128.848-.174A5.56,5.56,0,0,1-998.153,167.942Z" transform="translate(1004.435 -165.385)" fill="#e5b02b"/>
                </g>
              </g>
              <g id="Group_20" data-name="Group 20" transform="translate(38.752 36.446)">
                <g id="Group_19" data-name="Group 19">
                  <path id="Path_64" data-name="Path 64" d="M-974.627,173.553l-.017-.005c-.041.162-.424.325-1.156.476a15.9,15.9,0,0,1-4.817-.011,21.6,21.6,0,0,1-6.182-1.767l-1.807-.912.552.569c.081.087.157.168.238.25a35.823,35.823,0,0,1,2.568,3.1l2.788,3.835a17,17,0,0,0-.964-2.179c-.366-.883-.639-1.516-.813-1.9s-.308-.726-.418-1.005c.162.047.406.133.755.262a11.035,11.035,0,0,0,1.389.372,11.6,11.6,0,0,0,1.836.227c.645.023,1.278.023,1.905-.006.61-.052,1.1-.1,1.476-.169a7.585,7.585,0,0,0,.813-.162c.163-.041.436-.128.82-.25a2.508,2.508,0,0,0,.854-.447A.481.481,0,0,0-974.627,173.553Z" transform="translate(988.605 -171.334)" fill="#e5b02b"/>
                </g>
              </g>
            </g>
          </g>
          <g id="Group_23" data-name="Group 23" transform="translate(28.314 14.335)">
            <path id="Path_65" data-name="Path 65" d="M-995.955,140.545c.36-.146.308-.274-.163-.378q-6.475-1.6-6.327.7T-995.955,140.545Z" transform="translate(1002.448 -139.513)" fill="#fff"/>
          </g>
          <g id="Group_24" data-name="Group 24" transform="translate(41.991 15.228)">
            <path id="Path_66" data-name="Path 66" d="M-983.26,140.737a1.368,1.368,0,0,0-.918.988,3.164,3.164,0,0,0,0,1.8,3.057,3.057,0,0,0,.9,1.552,1.334,1.334,0,0,0,1.284.4,1.344,1.344,0,0,0,.918-.988,3.09,3.09,0,0,0,.006-1.8,3.121,3.121,0,0,0-.9-1.557A1.361,1.361,0,0,0-983.26,140.737Z" transform="translate(984.309 -140.696)" fill="#fff"/>
          </g>
          <g id="Group_25" data-name="Group 25" transform="translate(42.121 16.187)">
            <path id="Path_67" data-name="Path 67" d="M-983.369,142a.991.991,0,0,0-.668.727,2.314,2.314,0,0,0-.006,1.319,2.312,2.312,0,0,0,.663,1.145,1,1,0,0,0,.947.29.978.978,0,0,0,.674-.726,2.317,2.317,0,0,0,0-1.319,2.249,2.249,0,0,0-.663-1.139A1,1,0,0,0-983.369,142Z" transform="translate(984.136 -141.969)" fill="#623f98"/>
          </g>
        </g>
        <g id="Group_27" data-name="Group 27" transform="translate(36.878 42.206)">
          <path id="Path_68" data-name="Path 68" d="M-991.029,181.477c-.157-.029-.012.151.43.546a39.616,39.616,0,0,0,3.5,2.876c.256.279.267.843.052,1.691a32.927,32.927,0,0,1-1.325,4.108c-.133.226.093.157.685-.21a9.572,9.572,0,0,0,3.771-3.3c.139-.139.337.035.6.535s.494.924.715,1.284a15,15,0,0,0-.4-8.471l-.064-.179a14.677,14.677,0,0,0-.8-1.284c-.4-.593-.958-1.348-1.7-2.272l-.005-.006c-.244-.378-.332-.418-.256-.116a12.8,12.8,0,0,1,.366,4.881c-.029.3-.169.436-.425.412C-987.659,181.883-989.367,181.72-991.029,181.477Z" transform="translate(991.09 -176.477)" fill="#fff"/>
        </g>
      </g>
    </g>
  </g>
</svg>
